<mxfile host="Electron" modified="2025-01-24T07:46:32.645Z" agent="Mozilla/5.0 (Windows NT 10.0; Win64; x64) AppleWebKit/537.36 (KHTML, like Gecko) draw.io/23.1.5 Chrome/120.0.6099.109 Electron/28.1.0 Safari/537.36" etag="_N7t_AcQb5IyViQTLyWc" version="23.1.5" type="device">
  <diagram id="R2lEEEUBdFMjLlhIrx00" name="Page-1">
    <mxGraphModel dx="200" dy="629" grid="1" gridSize="10" guides="1" tooltips="1" connect="1" arrows="1" fold="1" page="1" pageScale="1" pageWidth="850" pageHeight="1100" math="0" shadow="0" extFonts="Permanent Marker^https://fonts.googleapis.com/css?family=Permanent+Marker">
      <root>
        <mxCell id="0" />
        <mxCell id="1" parent="0" />
        <mxCell id="NtgCIoPO1QVilq2R9m47-54" value="" style="shape=umlLifeline;perimeter=lifelinePerimeter;whiteSpace=wrap;html=1;container=1;dropTarget=0;collapsible=0;recursiveResize=0;outlineConnect=0;portConstraint=eastwest;newEdgeStyle={&quot;curved&quot;:0,&quot;rounded&quot;:0};participant=umlActor;" parent="1" vertex="1">
          <mxGeometry x="900" y="50" width="20" height="850" as="geometry" />
        </mxCell>
        <mxCell id="NtgCIoPO1QVilq2R9m47-55" value="" style="html=1;points=[[0,0,0,0,5],[0,1,0,0,-5],[1,0,0,0,5],[1,1,0,0,-5]];perimeter=orthogonalPerimeter;outlineConnect=0;targetShapes=umlLifeline;portConstraint=eastwest;newEdgeStyle={&quot;curved&quot;:0,&quot;rounded&quot;:0};" parent="NtgCIoPO1QVilq2R9m47-54" vertex="1">
          <mxGeometry x="5" y="50" width="10" height="730" as="geometry" />
        </mxCell>
        <mxCell id="NtgCIoPO1QVilq2R9m47-56" value="удалить" style="html=1;verticalAlign=bottom;startArrow=oval;startFill=1;endArrow=block;startSize=8;curved=0;rounded=0;entryX=0.13;entryY=0.109;entryDx=0;entryDy=0;entryPerimeter=0;" parent="1" source="NtgCIoPO1QVilq2R9m47-55" target="NtgCIoPO1QVilq2R9m47-58" edge="1">
          <mxGeometry width="60" relative="1" as="geometry">
            <mxPoint x="920" y="130" as="sourcePoint" />
            <mxPoint x="1034" y="130" as="targetPoint" />
          </mxGeometry>
        </mxCell>
        <mxCell id="NtgCIoPO1QVilq2R9m47-57" value="ArtistsView (index.html.erb)" style="shape=umlLifeline;perimeter=lifelinePerimeter;whiteSpace=wrap;html=1;container=1;dropTarget=0;collapsible=0;recursiveResize=0;outlineConnect=0;portConstraint=eastwest;newEdgeStyle={&quot;curved&quot;:0,&quot;rounded&quot;:0};" parent="1" vertex="1">
          <mxGeometry x="984" y="50" width="100" height="840" as="geometry" />
        </mxCell>
        <mxCell id="NtgCIoPO1QVilq2R9m47-58" value="" style="html=1;points=[[0,0,0,0,5],[0,1,0,0,-5],[1,0,0,0,5],[1,1,0,0,-5]];perimeter=orthogonalPerimeter;outlineConnect=0;targetShapes=umlLifeline;portConstraint=eastwest;newEdgeStyle={&quot;curved&quot;:0,&quot;rounded&quot;:0};" parent="NtgCIoPO1QVilq2R9m47-57" vertex="1">
          <mxGeometry x="45" y="60" width="10" height="130" as="geometry" />
        </mxCell>
        <mxCell id="NtgCIoPO1QVilq2R9m47-92" value="" style="html=1;points=[[0,0,0,0,5],[0,1,0,0,-5],[1,0,0,0,5],[1,1,0,0,-5]];perimeter=orthogonalPerimeter;outlineConnect=0;targetShapes=umlLifeline;portConstraint=eastwest;newEdgeStyle={&quot;curved&quot;:0,&quot;rounded&quot;:0};" parent="NtgCIoPO1QVilq2R9m47-57" vertex="1">
          <mxGeometry x="45" y="600" width="10" height="50" as="geometry" />
        </mxCell>
        <mxCell id="NtgCIoPO1QVilq2R9m47-59" value="&amp;nbsp;GET /artists/:id/confirm_destroy" style="html=1;verticalAlign=bottom;endArrow=open;curved=0;rounded=0;endFill=0;entryX=-0.157;entryY=0.159;entryDx=0;entryDy=0;entryPerimeter=0;" parent="1" source="NtgCIoPO1QVilq2R9m47-58" edge="1">
          <mxGeometry relative="1" as="geometry">
            <mxPoint x="1038.9999999999998" y="130" as="sourcePoint" />
            <mxPoint x="1293.43" y="135.44000000000005" as="targetPoint" />
          </mxGeometry>
        </mxCell>
        <mxCell id="NtgCIoPO1QVilq2R9m47-60" value="ArtistsController" style="shape=umlLifeline;perimeter=lifelinePerimeter;whiteSpace=wrap;html=1;container=1;dropTarget=0;collapsible=0;recursiveResize=0;outlineConnect=0;portConstraint=eastwest;newEdgeStyle={&quot;curved&quot;:0,&quot;rounded&quot;:0};" parent="1" vertex="1">
          <mxGeometry x="1250" y="50" width="100" height="840" as="geometry" />
        </mxCell>
        <mxCell id="NtgCIoPO1QVilq2R9m47-61" value="" style="html=1;points=[[0,0,0,0,5],[0,1,0,0,-5],[1,0,0,0,5],[1,1,0,0,-5]];perimeter=orthogonalPerimeter;outlineConnect=0;targetShapes=umlLifeline;portConstraint=eastwest;newEdgeStyle={&quot;curved&quot;:0,&quot;rounded&quot;:0};" parent="NtgCIoPO1QVilq2R9m47-60" vertex="1">
          <mxGeometry x="45" y="70" width="10" height="140" as="geometry" />
        </mxCell>
        <mxCell id="NtgCIoPO1QVilq2R9m47-73" value="" style="html=1;points=[[0,0,0,0,5],[0,1,0,0,-5],[1,0,0,0,5],[1,1,0,0,-5]];perimeter=orthogonalPerimeter;outlineConnect=0;targetShapes=umlLifeline;portConstraint=eastwest;newEdgeStyle={&quot;curved&quot;:0,&quot;rounded&quot;:0};" parent="NtgCIoPO1QVilq2R9m47-60" vertex="1">
          <mxGeometry x="45" y="295" width="10" height="215" as="geometry" />
        </mxCell>
        <mxCell id="NtgCIoPO1QVilq2R9m47-88" value="" style="html=1;points=[[0,0,0,0,5],[0,1,0,0,-5],[1,0,0,0,5],[1,1,0,0,-5]];perimeter=orthogonalPerimeter;outlineConnect=0;targetShapes=umlLifeline;portConstraint=eastwest;newEdgeStyle={&quot;curved&quot;:0,&quot;rounded&quot;:0};" parent="NtgCIoPO1QVilq2R9m47-60" vertex="1">
          <mxGeometry x="45" y="530" width="10" height="140" as="geometry" />
        </mxCell>
        <mxCell id="NtgCIoPO1QVilq2R9m47-90" style="edgeStyle=orthogonalEdgeStyle;rounded=0;orthogonalLoop=1;jettySize=auto;html=1;curved=0;exitX=1;exitY=1;exitDx=0;exitDy=-5;exitPerimeter=0;entryX=1;entryY=0;entryDx=0;entryDy=5;entryPerimeter=0;" parent="NtgCIoPO1QVilq2R9m47-60" source="NtgCIoPO1QVilq2R9m47-73" target="NtgCIoPO1QVilq2R9m47-88" edge="1">
          <mxGeometry relative="1" as="geometry">
            <Array as="points">
              <mxPoint x="70" y="505" />
              <mxPoint x="70" y="535" />
            </Array>
          </mxGeometry>
        </mxCell>
        <mxCell id="NtgCIoPO1QVilq2R9m47-91" value="GET /artists" style="edgeLabel;html=1;align=center;verticalAlign=middle;resizable=0;points=[];" parent="NtgCIoPO1QVilq2R9m47-90" vertex="1" connectable="0">
          <mxGeometry x="0.0228" y="-1" relative="1" as="geometry">
            <mxPoint x="21" as="offset" />
          </mxGeometry>
        </mxCell>
        <mxCell id="NtgCIoPO1QVilq2R9m47-62" value="Artist" style="shape=umlLifeline;perimeter=lifelinePerimeter;whiteSpace=wrap;html=1;container=1;dropTarget=0;collapsible=0;recursiveResize=0;outlineConnect=0;portConstraint=eastwest;newEdgeStyle={&quot;curved&quot;:0,&quot;rounded&quot;:0};" parent="1" vertex="1">
          <mxGeometry x="1480" y="50" width="100" height="830" as="geometry" />
        </mxCell>
        <mxCell id="NtgCIoPO1QVilq2R9m47-63" value="" style="html=1;points=[[0,0,0,0,5],[0,1,0,0,-5],[1,0,0,0,5],[1,1,0,0,-5]];perimeter=orthogonalPerimeter;outlineConnect=0;targetShapes=umlLifeline;portConstraint=eastwest;newEdgeStyle={&quot;curved&quot;:0,&quot;rounded&quot;:0};" parent="NtgCIoPO1QVilq2R9m47-62" vertex="1">
          <mxGeometry x="45" y="90" width="10" height="80" as="geometry" />
        </mxCell>
        <mxCell id="NtgCIoPO1QVilq2R9m47-83" value="" style="html=1;points=[[0,0,0,0,5],[0,1,0,0,-5],[1,0,0,0,5],[1,1,0,0,-5]];perimeter=orthogonalPerimeter;outlineConnect=0;targetShapes=umlLifeline;portConstraint=eastwest;newEdgeStyle={&quot;curved&quot;:0,&quot;rounded&quot;:0};" parent="NtgCIoPO1QVilq2R9m47-62" vertex="1">
          <mxGeometry x="45" y="420" width="10" height="70" as="geometry" />
        </mxCell>
        <mxCell id="NtgCIoPO1QVilq2R9m47-94" value="" style="html=1;points=[[0,0,0,0,5],[0,1,0,0,-5],[1,0,0,0,5],[1,1,0,0,-5]];perimeter=orthogonalPerimeter;outlineConnect=0;targetShapes=umlLifeline;portConstraint=eastwest;newEdgeStyle={&quot;curved&quot;:0,&quot;rounded&quot;:0};" parent="NtgCIoPO1QVilq2R9m47-62" vertex="1">
          <mxGeometry x="45" y="540" width="10" height="70" as="geometry" />
        </mxCell>
        <mxCell id="NtgCIoPO1QVilq2R9m47-64" value="confirm_destroy.html" style="html=1;verticalAlign=bottom;endArrow=open;dashed=1;endSize=8;curved=0;rounded=0;exitX=-0.141;exitY=0.724;exitDx=0;exitDy=0;exitPerimeter=0;" parent="1" edge="1">
          <mxGeometry relative="1" as="geometry">
            <mxPoint x="1743.5900000000001" y="290" as="sourcePoint" />
            <mxPoint x="915" y="290" as="targetPoint" />
          </mxGeometry>
        </mxCell>
        <mxCell id="NtgCIoPO1QVilq2R9m47-65" value="ArtistsView (confirm_destroy.html.erb)" style="shape=umlLifeline;perimeter=lifelinePerimeter;whiteSpace=wrap;html=1;container=1;dropTarget=0;collapsible=0;recursiveResize=0;outlineConnect=0;portConstraint=eastwest;newEdgeStyle={&quot;curved&quot;:0,&quot;rounded&quot;:0};" parent="1" vertex="1">
          <mxGeometry x="1680" y="50" width="140" height="830" as="geometry" />
        </mxCell>
        <mxCell id="NtgCIoPO1QVilq2R9m47-66" value="" style="html=1;points=[[0,0,0,0,5],[0,1,0,0,-5],[1,0,0,0,5],[1,1,0,0,-5]];perimeter=orthogonalPerimeter;outlineConnect=0;targetShapes=umlLifeline;portConstraint=eastwest;newEdgeStyle={&quot;curved&quot;:0,&quot;rounded&quot;:0};" parent="NtgCIoPO1QVilq2R9m47-65" vertex="1">
          <mxGeometry x="65" y="160" width="10" height="170" as="geometry" />
        </mxCell>
        <mxCell id="NtgCIoPO1QVilq2R9m47-67" value="find(:id)" style="html=1;verticalAlign=bottom;endArrow=open;curved=0;rounded=0;endFill=0;" parent="1" edge="1">
          <mxGeometry relative="1" as="geometry">
            <mxPoint x="1305" y="160" as="sourcePoint" />
            <mxPoint x="1525" y="160" as="targetPoint" />
          </mxGeometry>
        </mxCell>
        <mxCell id="NtgCIoPO1QVilq2R9m47-68" value="Данные артиста" style="html=1;verticalAlign=bottom;endArrow=open;dashed=1;endSize=8;curved=0;rounded=0;" parent="1" edge="1">
          <mxGeometry relative="1" as="geometry">
            <mxPoint x="1525" y="200" as="sourcePoint" />
            <mxPoint x="1305" y="200" as="targetPoint" />
          </mxGeometry>
        </mxCell>
        <mxCell id="NtgCIoPO1QVilq2R9m47-69" value="Рендер confirm_destroy.html" style="html=1;verticalAlign=bottom;endArrow=open;curved=0;rounded=0;endFill=0;" parent="1" edge="1">
          <mxGeometry relative="1" as="geometry">
            <mxPoint x="1305" y="240" as="sourcePoint" />
            <mxPoint x="1745" y="240" as="targetPoint" />
          </mxGeometry>
        </mxCell>
        <mxCell id="NtgCIoPO1QVilq2R9m47-70" value="Database" style="shape=umlLifeline;perimeter=lifelinePerimeter;whiteSpace=wrap;html=1;container=1;dropTarget=0;collapsible=0;recursiveResize=0;outlineConnect=0;portConstraint=eastwest;newEdgeStyle={&quot;curved&quot;:0,&quot;rounded&quot;:0};" parent="1" vertex="1">
          <mxGeometry x="1870" y="50" width="100" height="830" as="geometry" />
        </mxCell>
        <mxCell id="NtgCIoPO1QVilq2R9m47-71" value="" style="html=1;points=[[0,0,0,0,5],[0,1,0,0,-5],[1,0,0,0,5],[1,1,0,0,-5]];perimeter=orthogonalPerimeter;outlineConnect=0;targetShapes=umlLifeline;portConstraint=eastwest;newEdgeStyle={&quot;curved&quot;:0,&quot;rounded&quot;:0};" parent="NtgCIoPO1QVilq2R9m47-70" vertex="1">
          <mxGeometry x="45" y="420" width="10" height="80" as="geometry" />
        </mxCell>
        <mxCell id="NtgCIoPO1QVilq2R9m47-97" value="" style="html=1;points=[[0,0,0,0,5],[0,1,0,0,-5],[1,0,0,0,5],[1,1,0,0,-5]];perimeter=orthogonalPerimeter;outlineConnect=0;targetShapes=umlLifeline;portConstraint=eastwest;newEdgeStyle={&quot;curved&quot;:0,&quot;rounded&quot;:0};" parent="NtgCIoPO1QVilq2R9m47-70" vertex="1">
          <mxGeometry x="45" y="80" width="10" height="90" as="geometry" />
        </mxCell>
        <mxCell id="NtgCIoPO1QVilq2R9m47-102" value="" style="html=1;points=[[0,0,0,0,5],[0,1,0,0,-5],[1,0,0,0,5],[1,1,0,0,-5]];perimeter=orthogonalPerimeter;outlineConnect=0;targetShapes=umlLifeline;portConstraint=eastwest;newEdgeStyle={&quot;curved&quot;:0,&quot;rounded&quot;:0};" parent="NtgCIoPO1QVilq2R9m47-70" vertex="1">
          <mxGeometry x="45" y="540" width="10" height="80" as="geometry" />
        </mxCell>
        <mxCell id="5P7yPnP_U3dHADUZBez5-7" value="" style="html=1;points=[[0,0,0,0,5],[0,1,0,0,-5],[1,0,0,0,5],[1,1,0,0,-5]];perimeter=orthogonalPerimeter;outlineConnect=0;targetShapes=umlLifeline;portConstraint=eastwest;newEdgeStyle={&quot;curved&quot;:0,&quot;rounded&quot;:0};" vertex="1" parent="NtgCIoPO1QVilq2R9m47-70">
          <mxGeometry x="45" y="340" width="10" height="50" as="geometry" />
        </mxCell>
        <mxCell id="NtgCIoPO1QVilq2R9m47-72" value="Нажимает &quot;Удалить&quot;" style="html=1;verticalAlign=bottom;endArrow=open;curved=0;rounded=0;endFill=0;" parent="1" target="NtgCIoPO1QVilq2R9m47-66" edge="1">
          <mxGeometry relative="1" as="geometry">
            <mxPoint x="915" y="320" as="sourcePoint" />
            <mxPoint x="1620" y="350" as="targetPoint" />
          </mxGeometry>
        </mxCell>
        <mxCell id="NtgCIoPO1QVilq2R9m47-74" value="&amp;nbsp;DELETE /artists/:id" style="html=1;verticalAlign=bottom;endArrow=open;curved=0;rounded=0;endFill=0;" parent="1" edge="1">
          <mxGeometry relative="1" as="geometry">
            <mxPoint x="1745" y="360" as="sourcePoint" />
            <mxPoint x="1305" y="360" as="targetPoint" />
          </mxGeometry>
        </mxCell>
        <mxCell id="NtgCIoPO1QVilq2R9m47-80" value="" style="html=1;points=[[0,0,0,0,5],[0,1,0,0,-5],[1,0,0,0,5],[1,1,0,0,-5]];perimeter=orthogonalPerimeter;outlineConnect=0;targetShapes=umlLifeline;portConstraint=eastwest;newEdgeStyle={&quot;curved&quot;:0,&quot;rounded&quot;:0};" parent="1" vertex="1">
          <mxGeometry x="1525" y="380" width="10" height="70" as="geometry" />
        </mxCell>
        <mxCell id="NtgCIoPO1QVilq2R9m47-81" value="find(:id)" style="html=1;verticalAlign=bottom;endArrow=open;curved=0;rounded=0;endFill=0;" parent="1" edge="1">
          <mxGeometry relative="1" as="geometry">
            <mxPoint x="1305" y="400" as="sourcePoint" />
            <mxPoint x="1525" y="400" as="targetPoint" />
          </mxGeometry>
        </mxCell>
        <mxCell id="NtgCIoPO1QVilq2R9m47-82" value="Данные артиста" style="html=1;verticalAlign=bottom;endArrow=open;dashed=1;endSize=8;curved=0;rounded=0;" parent="1" edge="1">
          <mxGeometry relative="1" as="geometry">
            <mxPoint x="1525" y="440" as="sourcePoint" />
            <mxPoint x="1305" y="440" as="targetPoint" />
          </mxGeometry>
        </mxCell>
        <mxCell id="NtgCIoPO1QVilq2R9m47-84" value="destroy" style="html=1;verticalAlign=bottom;endArrow=open;curved=0;rounded=0;endFill=0;" parent="1" edge="1">
          <mxGeometry relative="1" as="geometry">
            <mxPoint x="1305" y="490" as="sourcePoint" />
            <mxPoint x="1525" y="490" as="targetPoint" />
          </mxGeometry>
        </mxCell>
        <mxCell id="NtgCIoPO1QVilq2R9m47-85" value="DELETE * FROM artists WHERE id = {id}" style="html=1;verticalAlign=bottom;endArrow=open;curved=0;rounded=0;endFill=0;exitX=1;exitY=0.469;exitDx=0;exitDy=0;exitPerimeter=0;" parent="1" edge="1">
          <mxGeometry relative="1" as="geometry">
            <mxPoint x="1535" y="499.99999999999994" as="sourcePoint" />
            <mxPoint x="1915" y="499.99999999999994" as="targetPoint" />
          </mxGeometry>
        </mxCell>
        <mxCell id="NtgCIoPO1QVilq2R9m47-86" value="Данные удалены" style="html=1;verticalAlign=bottom;endArrow=open;dashed=1;endSize=8;curved=0;rounded=0;" parent="1" edge="1">
          <mxGeometry relative="1" as="geometry">
            <mxPoint x="1915" y="520.0000000000002" as="sourcePoint" />
            <mxPoint x="1535" y="520.0000000000002" as="targetPoint" />
          </mxGeometry>
        </mxCell>
        <mxCell id="NtgCIoPO1QVilq2R9m47-87" value="Артист удален" style="html=1;verticalAlign=bottom;endArrow=open;dashed=1;endSize=8;curved=0;rounded=0;" parent="1" edge="1">
          <mxGeometry relative="1" as="geometry">
            <mxPoint x="1525" y="530" as="sourcePoint" />
            <mxPoint x="1305" y="530" as="targetPoint" />
          </mxGeometry>
        </mxCell>
        <mxCell id="NtgCIoPO1QVilq2R9m47-93" value="Рендер index.html" style="html=1;verticalAlign=bottom;endArrow=open;curved=0;rounded=0;endFill=0;" parent="1" edge="1">
          <mxGeometry relative="1" as="geometry">
            <mxPoint x="1295" y="660" as="sourcePoint" />
            <mxPoint x="1039" y="660" as="targetPoint" />
          </mxGeometry>
        </mxCell>
        <mxCell id="NtgCIoPO1QVilq2R9m47-96" value="all()" style="html=1;verticalAlign=bottom;endArrow=open;curved=0;rounded=0;endFill=0;exitX=1.073;exitY=0.305;exitDx=0;exitDy=0;exitPerimeter=0;" parent="1" edge="1">
          <mxGeometry relative="1" as="geometry">
            <mxPoint x="1305.7300000000002" y="600" as="sourcePoint" />
            <mxPoint x="1525" y="600" as="targetPoint" />
          </mxGeometry>
        </mxCell>
        <mxCell id="NtgCIoPO1QVilq2R9m47-98" value="SELECT * FROM artists WHERE id = {id}" style="html=1;verticalAlign=bottom;endArrow=open;curved=0;rounded=0;endFill=0;exitX=1.032;exitY=0.395;exitDx=0;exitDy=0;exitPerimeter=0;" parent="1" source="NtgCIoPO1QVilq2R9m47-63" target="NtgCIoPO1QVilq2R9m47-97" edge="1">
          <mxGeometry relative="1" as="geometry">
            <mxPoint x="1560" y="160" as="sourcePoint" />
            <mxPoint x="1780" y="160" as="targetPoint" />
          </mxGeometry>
        </mxCell>
        <mxCell id="NtgCIoPO1QVilq2R9m47-100" value="Выбранная запись" style="html=1;verticalAlign=bottom;endArrow=open;dashed=1;endSize=8;curved=0;rounded=0;" parent="1" source="NtgCIoPO1QVilq2R9m47-97" edge="1">
          <mxGeometry relative="1" as="geometry">
            <mxPoint x="1755" y="190" as="sourcePoint" />
            <mxPoint x="1535" y="190" as="targetPoint" />
          </mxGeometry>
        </mxCell>
        <mxCell id="NtgCIoPO1QVilq2R9m47-103" value="SELECT * FROM artists" style="html=1;verticalAlign=bottom;endArrow=open;curved=0;rounded=0;endFill=0;exitX=1.032;exitY=0.395;exitDx=0;exitDy=0;exitPerimeter=0;" parent="1" edge="1">
          <mxGeometry relative="1" as="geometry">
            <mxPoint x="1535" y="610" as="sourcePoint" />
            <mxPoint x="1915" y="610" as="targetPoint" />
          </mxGeometry>
        </mxCell>
        <mxCell id="NtgCIoPO1QVilq2R9m47-104" value="Выбранные записи" style="html=1;verticalAlign=bottom;endArrow=open;dashed=1;endSize=8;curved=0;rounded=0;" parent="1" edge="1">
          <mxGeometry relative="1" as="geometry">
            <mxPoint x="1915" y="630" as="sourcePoint" />
            <mxPoint x="1535" y="630" as="targetPoint" />
          </mxGeometry>
        </mxCell>
        <mxCell id="NtgCIoPO1QVilq2R9m47-105" value="Данные артистов" style="html=1;verticalAlign=bottom;endArrow=open;dashed=1;endSize=8;curved=0;rounded=0;" parent="1" edge="1">
          <mxGeometry relative="1" as="geometry">
            <mxPoint x="1525" y="640" as="sourcePoint" />
            <mxPoint x="1305" y="640" as="targetPoint" />
          </mxGeometry>
        </mxCell>
        <mxCell id="NtgCIoPO1QVilq2R9m47-107" value="index.html" style="html=1;verticalAlign=bottom;endArrow=open;dashed=1;endSize=8;curved=0;rounded=0;" parent="1" source="NtgCIoPO1QVilq2R9m47-92" target="NtgCIoPO1QVilq2R9m47-55" edge="1">
          <mxGeometry relative="1" as="geometry">
            <mxPoint x="1010" y="680" as="sourcePoint" />
            <mxPoint x="790" y="680" as="targetPoint" />
          </mxGeometry>
        </mxCell>
        <mxCell id="5P7yPnP_U3dHADUZBez5-8" value="SELECT * FROM artists WHERE id = {id}" style="html=1;verticalAlign=bottom;endArrow=open;curved=0;rounded=0;endFill=0;exitX=1.032;exitY=0.395;exitDx=0;exitDy=0;exitPerimeter=0;" edge="1" parent="1">
          <mxGeometry relative="1" as="geometry">
            <mxPoint x="1535" y="410" as="sourcePoint" />
            <mxPoint x="1915" y="410" as="targetPoint" />
          </mxGeometry>
        </mxCell>
        <mxCell id="5P7yPnP_U3dHADUZBez5-9" value="Выбранная запись" style="html=1;verticalAlign=bottom;endArrow=open;dashed=1;endSize=8;curved=0;rounded=0;" edge="1" parent="1">
          <mxGeometry relative="1" as="geometry">
            <mxPoint x="1915" y="428" as="sourcePoint" />
            <mxPoint x="1535" y="428" as="targetPoint" />
          </mxGeometry>
        </mxCell>
      </root>
    </mxGraphModel>
  </diagram>
</mxfile>
